<?xml version="1.0" encoding="utf-8"?>
<!-- Generator: Adobe Illustrator 21.0.2, SVG Export Plug-In . SVG Version: 6.00 Build 0)  -->
<svg version="1.1" xmlns="http://www.w3.org/2000/svg" xmlns:xlink="http://www.w3.org/1999/xlink" x="0px" y="0px"
	 viewBox="0 0 558.9 141.4" style="enable-background:new 0 0 558.9 141.4;" xml:space="preserve">
<style type="text/css">
	.st0{fill:#FFFFFF;}
	.st1{fill:#DC0814;}
</style>
<g id="Footer">
	<g>
		<path d="M-1324.1,657.7v6.1h3.2v1h-4.3v-7.1H-1324.1z"/>
		<path d="M-1320.2,661.9c0-1.9,1-2.9,2.5-2.9c1.5,0,2.5,1,2.5,2.9c0,1.9-1,3-2.5,3C-1319.2,664.9-1320.2,663.8-1320.2,661.9z
			 M-1319.1,662c0,1.4,0.5,2.1,1.5,2.1c1,0,1.5-0.7,1.5-2.1c0-1.4-0.5-2-1.5-2C-1318.6,659.9-1319.1,660.6-1319.1,662z"/>
		<path d="M-1310.3,659.5c0.3-0.1,0.3-0.4,0.4-0.8l0.9,0.3c-0.1,0.5-0.5,0.9-0.9,1c0.2,0.3,0.3,0.6,0.3,1c0,1.3-1,1.9-2.3,1.9
			c-0.3,0-0.6,0-0.7-0.1c-0.3,0.1-0.4,0.3-0.4,0.6c0,0.3,0.2,0.5,0.6,0.5h1.4c1.3,0,1.9,0.6,1.9,1.5c0,1.5-1.6,1.8-3,1.8
			c-1.2,0-2.4-0.3-2.4-1.5c0-0.7,0.5-1.2,1.4-1.3c-0.5-0.1-0.8-0.4-0.8-0.9c0-0.4,0.2-0.8,0.8-1c-0.7-0.3-1.1-0.9-1.1-1.7
			c0-1.2,0.9-2,2.2-2C-1311.2,659.1-1310.7,659.2-1310.3,659.5z M-1312,666.5c1.1,0,1.9-0.2,1.9-0.9c0-0.4-0.2-0.7-0.9-0.7h-1.2
			c-0.8,0-1.2,0.3-1.2,0.8C-1313.5,666.3-1312.9,666.5-1312,666.5z M-1311.9,662.2c0.7,0,1.2-0.4,1.2-1.2s-0.5-1.2-1.2-1.2
			c-0.7,0-1.2,0.4-1.2,1.2C-1313,661.7-1312.6,662.2-1311.9,662.2z"/>
		<path d="M-1308.5,661.9c0-1.9,1-2.9,2.5-2.9c1.5,0,2.5,1,2.5,2.9c0,1.9-1,3-2.5,3C-1307.5,664.9-1308.5,663.8-1308.5,661.9z
			 M-1307.5,662c0,1.4,0.5,2.1,1.5,2.1c1,0,1.5-0.7,1.5-2.1c0-1.4-0.5-2-1.5-2C-1307,659.9-1307.5,660.6-1307.5,662z"/>
		<path d="M-1299.1,664.6c-0.4,0.2-0.8,0.3-1.3,0.3c-1,0-1.6-0.5-1.6-1.6v-3.3h-0.8v-0.9h0.8V658l1.1-0.1v1.3h1.6v0.9h-1.7v3
			c0,0.6,0.3,0.9,0.7,0.9c0.4,0,0.6-0.1,0.9-0.3L-1299.1,664.6z"/>
		<path d="M-1296.7,662.3c0.3,1.1,0.4,1.8,0.4,1.8h0c0,0,0.1-0.7,0.4-1.8l0.9-3h1.1l-2,6c-0.6,1.6-1.3,2-2.3,2c-0.3,0-0.6,0-0.8-0.1
			l0.1-0.9c0.2,0.1,0.5,0.2,0.7,0.2c0.6,0,0.9-0.3,1.2-1.3l-2.1-5.9h1.2L-1296.7,662.3z"/>
		<path d="M-1291.7,667.2h-1.1v-8h0.9l0.1,1.1c0.3-0.9,1.1-1.2,1.8-1.2c1.4,0,2.2,1,2.2,2.8c0,1.7-0.9,3-2.4,3
			c-0.9,0-1.4-0.4-1.6-0.9V667.2z M-1291.7,662.6c0,1.1,0.7,1.5,1.3,1.5c0.8,0,1.5-0.7,1.5-2.1c0-1.3-0.5-2-1.4-2
			c-0.8,0-1.5,0.6-1.5,1.6V662.6z"/>
		<path d="M-1283,663.1l0.9,0.3c-0.2,1.1-1.2,1.5-2.2,1.5c-1.5,0-2.5-1-2.5-2.9c0-1.9,1-3,2.5-3c1.4,0,2.2,1,2.2,2.4
			c0,0.3,0,0.6-0.1,0.8h-3.6c0,1.1,0.6,1.8,1.5,1.8C-1283.6,664-1283.2,663.8-1283,663.1z M-1283.1,661.4c0-0.1,0-0.2,0-0.2
			c0-0.7-0.5-1.3-1.2-1.3c-0.8,0-1.3,0.5-1.4,1.5H-1283.1z"/>
		<path d="M-1277.5,662.8c0.1,0.9,0.7,1.3,1.5,1.3c0.8,0,1.3-0.3,1.3-1c0-0.6-0.3-0.9-1.5-1.4c-1.1-0.4-2.1-0.8-2.1-2.1
			c0-1.5,1.2-2,2.3-2c1.3,0,2.3,0.5,2.4,1.9l-1.1,0.2c-0.1-0.8-0.6-1.2-1.3-1.2c-0.7,0-1.1,0.4-1.1,1c0,0.7,0.6,0.9,1.5,1.3
			c1.1,0.4,2,0.8,2,2.1c0,1.4-1.1,2-2.5,2c-1.4,0-2.2-0.6-2.4-1.8L-1277.5,662.8z"/>
		<path d="M-1270.9,662.3c0.3,1.1,0.4,1.8,0.4,1.8h0c0,0,0.1-0.7,0.4-1.8l0.9-3h1.1l-2,6c-0.6,1.6-1.3,2-2.3,2c-0.3,0-0.6,0-0.8-0.1
			l0.1-0.9c0.2,0.1,0.5,0.2,0.7,0.2c0.6,0,0.9-0.3,1.2-1.3l-2.1-5.9h1.2L-1270.9,662.3z"/>
		<path d="M-1266.7,663.2c0.1,0.6,0.5,0.9,1.2,0.9c0.6,0,1.1-0.2,1.1-0.7c0-0.5-0.2-0.7-0.9-0.9l-0.8-0.2c-1-0.2-1.4-0.8-1.4-1.6
			c0-1.2,1-1.7,2.1-1.7c1.2,0,1.9,0.4,2,1.5l-1.1,0.1c0-0.6-0.4-0.8-1-0.8c-0.6,0-1,0.3-1,0.7c0,0.4,0.2,0.6,0.8,0.8l0.8,0.2
			c1,0.2,1.5,0.7,1.5,1.7c0,1.2-0.9,1.6-2.1,1.6c-1.3,0-2-0.4-2.1-1.4L-1266.7,663.2z"/>
		<path d="M-1259.1,664.6c-0.4,0.2-0.8,0.3-1.3,0.3c-1,0-1.6-0.5-1.6-1.6v-3.3h-0.8v-0.9h0.8V658l1.1-0.1v1.3h1.6v0.9h-1.7v3
			c0,0.6,0.3,0.9,0.7,0.9c0.4,0,0.6-0.1,0.9-0.3L-1259.1,664.6z"/>
		<path d="M-1254.7,663.1l0.9,0.3c-0.2,1.1-1.2,1.5-2.2,1.5c-1.5,0-2.5-1-2.5-2.9c0-1.9,1-3,2.5-3c1.4,0,2.2,1,2.2,2.4
			c0,0.3,0,0.6-0.1,0.8h-3.6c0,1.1,0.6,1.8,1.5,1.8C-1255.3,664-1254.9,663.8-1254.7,663.1z M-1254.8,661.4c0-0.1,0-0.2,0-0.2
			c0-0.7-0.5-1.3-1.2-1.3c-0.8,0-1.3,0.5-1.4,1.5H-1254.8z"/>
		<path d="M-1246.4,659.1c0.9,0,1.6,0.5,1.6,1.7v4h-1.1v-3.6c0-0.7-0.3-1.1-0.9-1.1c-0.6,0-1.3,0.4-1.3,1.6v3.2h-1.1v-3.6
			c0-0.7-0.3-1.1-0.9-1.1c-0.6,0-1.3,0.5-1.3,1.6v3.2h-1.1v-5.5h0.9l0.1,1.1c0.3-0.9,1-1.2,1.7-1.2c0.8,0,1.4,0.3,1.5,1.2
			C-1247.9,659.4-1247.1,659.1-1246.4,659.1z"/>
		<path d="M-1242.2,659.2c0.5,0,0.8,0.3,0.8,0.8c0,0.5-0.4,0.8-0.8,0.8c-0.5,0-0.8-0.4-0.8-0.8
			C-1243,659.5-1242.7,659.2-1242.2,659.2z M-1242.2,663.2c0.5,0,0.8,0.3,0.8,0.8c0,0.5-0.4,0.8-0.8,0.8c-0.5,0-0.8-0.4-0.8-0.8
			C-1243,663.5-1242.7,663.2-1242.2,663.2z"/>
		<path d="M-1233.9,663l-1.3-2.4c-0.4-0.8-0.5-1.2-0.5-1.2h0c0,0,0.1,0.4,0.1,1.3v4.1h-1.1v-7.1h1.3l1.7,3.3
			c0.3,0.5,0.4,0.9,0.4,0.9h0c0,0,0.1-0.3,0.4-0.9l1.7-3.3h1.2v7.1h-1.1v-4.1c0-0.8,0.1-1.3,0.1-1.3h0c0,0-0.1,0.4-0.5,1.2l-1.3,2.4
			H-1233.9z"/>
		<path d="M-1225,663.1l0.9,0.3c-0.2,1.1-1.2,1.5-2.2,1.5c-1.5,0-2.5-1-2.5-2.9c0-1.9,1-3,2.5-3c1.4,0,2.2,1,2.2,2.4
			c0,0.3,0,0.6-0.1,0.8h-3.6c0,1.1,0.6,1.8,1.5,1.8C-1225.6,664-1225.2,663.8-1225,663.1z M-1225.1,661.4c0-0.1,0-0.2,0-0.2
			c0-0.7-0.5-1.3-1.2-1.3c-0.8,0-1.3,0.5-1.4,1.5H-1225.1z"/>
		<path d="M-1219.1,656.7h1.1v8h-1l-0.1-1c-0.3,0.8-1,1.1-1.8,1.1c-1.2,0-2.2-0.9-2.2-2.8c0-1.9,0.9-3,2.5-3c0.7,0,1.3,0.4,1.5,0.9
			V656.7z M-1219,661.3c0-1-0.7-1.4-1.4-1.4c-0.8,0-1.5,0.6-1.5,2.1c0,1.3,0.6,2,1.5,2c0.6,0,1.4-0.5,1.4-1.5V661.3z"/>
		<path d="M-1215.7,656.7c0.4,0,0.8,0.3,0.8,0.7c0,0.4-0.3,0.7-0.8,0.7c-0.4,0-0.7-0.3-0.7-0.7
			C-1216.4,657-1216.1,656.7-1215.7,656.7z M-1215.2,659.2v5.5h-1.1v-5.5H-1215.2z"/>
		<path d="M-1210.1,663.7c-0.3,0.8-0.8,1.2-1.7,1.2c-1,0-1.7-0.5-1.7-1.8v-3.9h1.1v3.7c0,0.8,0.3,1.2,1,1.2c0.6,0,1.3-0.5,1.3-1.6
			v-3.3h1.1v5.5h-0.9L-1210.1,663.7z"/>
		<path d="M-1201.4,659.1c0.9,0,1.6,0.5,1.6,1.7v4h-1.1v-3.6c0-0.7-0.3-1.1-0.9-1.1c-0.6,0-1.3,0.4-1.3,1.6v3.2h-1.1v-3.6
			c0-0.7-0.3-1.1-0.9-1.1c-0.6,0-1.3,0.5-1.3,1.6v3.2h-1.1v-5.5h0.9l0.1,1.1c0.3-0.9,1-1.2,1.7-1.2c0.8,0,1.4,0.3,1.5,1.2
			C-1202.8,659.4-1202.1,659.1-1201.4,659.1z"/>
		<path d="M-1195.1,667.2v-10.5h0.9v10.5H-1195.1z"/>
		<path d="M-1189.8,661.2c0-2.4,1.2-3.7,3.2-3.7c1.9,0,3.2,1.3,3.2,3.7c0,2.4-1.2,3.7-3.2,3.7
			C-1188.5,664.9-1189.8,663.6-1189.8,661.2z M-1188.6,661.2c0,1.7,0.7,2.7,2,2.7c1.3,0,2-1,2-2.7c0-1.7-0.7-2.7-2-2.7
			C-1187.9,658.5-1188.6,659.5-1188.6,661.2z"/>
		<path d="M-1180.9,667.2h-1.1v-8h0.9l0.1,1.1c0.3-0.9,1.1-1.2,1.8-1.2c1.4,0,2.2,1,2.2,2.8c0,1.7-0.9,3-2.4,3
			c-0.9,0-1.4-0.4-1.6-0.9V667.2z M-1180.9,662.6c0,1.1,0.7,1.5,1.3,1.5c0.8,0,1.5-0.7,1.5-2.1c0-1.3-0.5-2-1.4-2
			c-0.8,0-1.5,0.6-1.5,1.6V662.6z"/>
		<path d="M-1172.2,663.1l0.9,0.3c-0.2,1.1-1.2,1.5-2.2,1.5c-1.5,0-2.5-1-2.5-2.9c0-1.9,1-3,2.5-3c1.4,0,2.2,1,2.2,2.4
			c0,0.3,0,0.6-0.1,0.8h-3.6c0,1.1,0.6,1.8,1.5,1.8C-1172.8,664-1172.4,663.8-1172.2,663.1z M-1172.3,661.4c0-0.1,0-0.2,0-0.2
			c0-0.7-0.5-1.3-1.2-1.3c-0.8,0-1.3,0.5-1.4,1.5H-1172.3z"/>
		<path d="M-1168.9,660.3c0.3-0.8,0.9-1.2,1.8-1.2c0.9,0,1.7,0.5,1.7,1.7v4h-1.1v-3.6c0-0.7-0.3-1.1-1-1.1c-0.7,0-1.3,0.4-1.3,1.6
			v3.2h-1.1v-5.5h0.9L-1168.9,660.3z"/>
		<path d="M-1162.8,664.7v-6.1h-2.1v-1h5.2v1h-2.1v6.1H-1162.8z"/>
		<path d="M-1157.4,662.3c0.3,1.1,0.4,1.8,0.4,1.8h0c0,0,0.1-0.7,0.4-1.8l0.9-3h1.1l-2,6c-0.6,1.6-1.3,2-2.3,2c-0.3,0-0.6,0-0.8-0.1
			l0.1-0.9c0.2,0.1,0.5,0.2,0.7,0.2c0.6,0,0.9-0.3,1.2-1.3l-2.1-5.9h1.2L-1157.4,662.3z"/>
		<path d="M-1152.4,667.2h-1.1v-8h0.9l0.1,1.1c0.3-0.9,1.1-1.2,1.8-1.2c1.4,0,2.2,1,2.2,2.8c0,1.7-0.9,3-2.4,3
			c-0.9,0-1.4-0.4-1.6-0.9V667.2z M-1152.4,662.6c0,1.1,0.7,1.5,1.3,1.5c0.8,0,1.5-0.7,1.5-2.1c0-1.3-0.5-2-1.4-2
			c-0.8,0-1.5,0.6-1.5,1.6V662.6z"/>
		<path d="M-1143.7,663.1l0.9,0.3c-0.2,1.1-1.2,1.5-2.2,1.5c-1.5,0-2.5-1-2.5-2.9c0-1.9,1-3,2.5-3c1.4,0,2.2,1,2.2,2.4
			c0,0.3,0,0.6-0.1,0.8h-3.6c0,1.1,0.6,1.8,1.5,1.8C-1144.3,664-1143.9,663.8-1143.7,663.1z M-1143.8,661.4c0-0.1,0-0.2,0-0.2
			c0-0.7-0.5-1.3-1.2-1.3c-0.8,0-1.3,0.5-1.4,1.5H-1143.8z"/>
		<path d="M-1138.5,664.7v-7.1h4.2v1h-3.1v2.2h2.7v1h-2.7v3H-1138.5z"/>
		<path d="M-1129.9,663.1l0.9,0.3c-0.2,1.1-1.2,1.5-2.2,1.5c-1.5,0-2.5-1-2.5-2.9c0-1.9,1-3,2.5-3c1.4,0,2.2,1,2.2,2.4
			c0,0.3,0,0.6-0.1,0.8h-3.6c0,1.1,0.6,1.8,1.5,1.8C-1130.5,664-1130.1,663.8-1129.9,663.1z M-1130,661.4c0-0.1,0-0.2,0-0.2
			c0-0.7-0.5-1.3-1.2-1.3c-0.8,0-1.3,0.5-1.4,1.5H-1130z"/>
		<path d="M-1123.7,663.4c0,0.4,0.2,0.5,0.4,0.5c0.1,0,0.2,0,0.3-0.1v0.8c-0.2,0.1-0.3,0.1-0.6,0.1c-0.6,0-1-0.3-1.1-0.9
			c-0.3,0.7-0.9,0.9-1.6,0.9c-1,0-1.7-0.6-1.7-1.5c0-1.2,0.9-1.9,3.2-1.8v-0.7c0-0.7-0.4-0.9-1-0.9c-0.6,0-1,0.3-1,0.9l-1-0.2
			c0.1-1.2,1.1-1.6,2.1-1.6c1.1,0,2,0.4,2,1.7V663.4z M-1124.7,662.3c-1.5,0-2.1,0.3-2.1,1c0,0.5,0.3,0.8,0.9,0.8
			c0.6,0,1.2-0.3,1.2-1V662.3z"/>
		<path d="M-1118.8,664.6c-0.4,0.2-0.8,0.3-1.3,0.3c-1,0-1.6-0.5-1.6-1.6v-3.3h-0.8v-0.9h0.8V658l1.1-0.1v1.3h1.6v0.9h-1.7v3
			c0,0.6,0.3,0.9,0.7,0.9c0.4,0,0.6-0.1,0.9-0.3L-1118.8,664.6z"/>
		<path d="M-1114.4,663.7c-0.3,0.8-0.8,1.2-1.7,1.2c-1,0-1.7-0.5-1.7-1.8v-3.9h1.1v3.7c0,0.8,0.3,1.2,1,1.2c0.6,0,1.3-0.5,1.3-1.6
			v-3.3h1.1v5.5h-0.9L-1114.4,663.7z"/>
		<path d="M-1108.5,660.3c-0.1,0-0.3,0-0.5,0c-0.8,0-1.5,0.6-1.5,1.7v2.8h-1.1v-5.5h0.9l0.1,1.5c0.2-1,0.9-1.7,2.1-1.6
			L-1108.5,660.3z"/>
		<path d="M-1104.3,663.1l0.9,0.3c-0.2,1.1-1.2,1.5-2.2,1.5c-1.5,0-2.5-1-2.5-2.9c0-1.9,1-3,2.5-3c1.4,0,2.2,1,2.2,2.4
			c0,0.3,0,0.6-0.1,0.8h-3.6c0,1.1,0.6,1.8,1.5,1.8C-1104.9,664-1104.5,663.8-1104.3,663.1z M-1104.3,661.4c0-0.1,0-0.2,0-0.2
			c0-0.7-0.5-1.3-1.2-1.3c-0.8,0-1.3,0.5-1.4,1.5H-1104.3z"/>
		<path d="M-1101.5,663.2c0.1,0.6,0.5,0.9,1.2,0.9c0.6,0,1.1-0.2,1.1-0.7c0-0.5-0.2-0.7-0.9-0.9l-0.8-0.2c-1-0.2-1.4-0.8-1.4-1.6
			c0-1.2,1-1.7,2.1-1.7c1.2,0,1.9,0.4,2,1.5l-1.1,0.1c0-0.6-0.4-0.8-1-0.8c-0.6,0-1,0.3-1,0.7c0,0.4,0.2,0.6,0.8,0.8l0.8,0.2
			c1,0.2,1.5,0.7,1.5,1.7c0,1.2-0.9,1.6-2.1,1.6c-1.3,0-2-0.4-2.1-1.4L-1101.5,663.2z"/>
		<path d="M-1096,659.2c0.5,0,0.8,0.3,0.8,0.8c0,0.5-0.4,0.8-0.8,0.8c-0.5,0-0.8-0.4-0.8-0.8C-1096.8,659.5-1096.5,659.2-1096,659.2
			z M-1096,663.2c0.5,0,0.8,0.3,0.8,0.8c0,0.5-0.4,0.8-0.8,0.8c-0.5,0-0.8-0.4-0.8-0.8C-1096.8,663.5-1096.5,663.2-1096,663.2z"/>
		<path d="M-1090.3,662.8c0.1,0.9,0.7,1.3,1.5,1.3c0.8,0,1.3-0.3,1.3-1c0-0.6-0.3-0.9-1.5-1.4c-1.1-0.4-2.1-0.8-2.1-2.1
			c0-1.5,1.2-2,2.3-2c1.3,0,2.3,0.5,2.4,1.9l-1.1,0.2c-0.1-0.8-0.6-1.2-1.3-1.2c-0.7,0-1.1,0.4-1.1,1c0,0.7,0.6,0.9,1.5,1.3
			c1.1,0.4,2,0.8,2,2.1c0,1.4-1.1,2-2.5,2c-1.4,0-2.2-0.6-2.4-1.8L-1090.3,662.8z"/>
		<path d="M-1082.1,664.6c-0.4,0.2-0.8,0.3-1.3,0.3c-1,0-1.6-0.5-1.6-1.6v-3.3h-0.8v-0.9h0.8V658l1.1-0.1v1.3h1.6v0.9h-1.7v3
			c0,0.6,0.3,0.9,0.7,0.9c0.4,0,0.6-0.1,0.9-0.3L-1082.1,664.6z"/>
		<path d="M-1079.6,662.3c0.3,1.1,0.4,1.8,0.4,1.8h0c0,0,0.1-0.7,0.4-1.8l0.9-3h1.1l-2,6c-0.6,1.6-1.3,2-2.3,2c-0.3,0-0.6,0-0.8-0.1
			l0.1-0.9c0.2,0.1,0.5,0.2,0.7,0.2c0.6,0,0.9-0.3,1.2-1.3l-2.1-5.9h1.2L-1079.6,662.3z"/>
		<path d="M-1073.9,664.7c-0.3,0.1-0.5,0.1-0.7,0.1c-0.7,0-1.3-0.4-1.3-1.2v-6.9h1.1v6.7c0,0.3,0.2,0.5,0.5,0.5c0.2,0,0.3,0,0.4-0.1
			L-1073.9,664.7z"/>
		<path d="M-1072.1,656.7c0.4,0,0.8,0.3,0.8,0.7c0,0.4-0.3,0.7-0.8,0.7c-0.4,0-0.7-0.3-0.7-0.7
			C-1072.8,657-1072.5,656.7-1072.1,656.7z M-1071.5,659.2v5.5h-1.1v-5.5H-1071.5z"/>
		<path d="M-1069.4,663.2c0.1,0.6,0.5,0.9,1.2,0.9c0.6,0,1.1-0.2,1.1-0.7c0-0.5-0.2-0.7-0.9-0.9l-0.8-0.2c-1-0.2-1.4-0.8-1.4-1.6
			c0-1.2,1-1.7,2.1-1.7c1.2,0,1.9,0.4,2,1.5l-1.1,0.1c0-0.6-0.4-0.8-1-0.8c-0.6,0-1,0.3-1,0.7c0,0.4,0.2,0.6,0.8,0.8l0.8,0.2
			c1,0.2,1.5,0.7,1.5,1.7c0,1.2-0.9,1.6-2.1,1.6c-1.3,0-2-0.4-2.1-1.4L-1069.4,663.2z"/>
		<path d="M-1061.8,664.6c-0.4,0.2-0.8,0.3-1.3,0.3c-1,0-1.6-0.5-1.6-1.6v-3.3h-0.8v-0.9h0.8V658l1.1-0.1v1.3h1.6v0.9h-1.7v3
			c0,0.6,0.3,0.9,0.7,0.9c0.4,0,0.6-0.1,0.9-0.3L-1061.8,664.6z"/>
		<path d="M-1060.2,656.7c0.4,0,0.8,0.3,0.8,0.7c0,0.4-0.3,0.7-0.8,0.7c-0.4,0-0.7-0.3-0.7-0.7
			C-1060.9,657-1060.6,656.7-1060.2,656.7z M-1059.6,659.2v5.5h-1.1v-5.5H-1059.6z"/>
		<path d="M-1053.7,663.3c-0.2,1.1-1.1,1.5-2.2,1.5c-1.5,0-2.4-1-2.4-2.9c0-1.8,1-2.9,2.5-2.9c1.2,0,1.9,0.6,2,1.7l-1,0.2
			c-0.1-0.7-0.5-1-1.1-1c-0.9,0-1.4,0.8-1.4,2.1c0,1.2,0.6,2,1.5,2c0.6,0,1-0.3,1.2-0.9L-1053.7,663.3z"/>
		<path d="M-1049.3,662.8c0.1,0.9,0.7,1.3,1.5,1.3c0.8,0,1.3-0.3,1.3-1c0-0.6-0.3-0.9-1.5-1.4c-1.1-0.4-2.1-0.8-2.1-2.1
			c0-1.5,1.2-2,2.3-2c1.3,0,2.3,0.5,2.4,1.9l-1.1,0.2c-0.1-0.8-0.6-1.2-1.3-1.2c-0.7,0-1.1,0.4-1.1,1c0,0.7,0.6,0.9,1.5,1.3
			c1.1,0.4,2,0.8,2,2.1c0,1.4-1.1,2-2.5,2c-1.4,0-2.2-0.6-2.4-1.8L-1049.3,662.8z"/>
		<path d="M-1040.7,663.1l0.9,0.3c-0.2,1.1-1.2,1.5-2.2,1.5c-1.5,0-2.5-1-2.5-2.9c0-1.9,1-3,2.5-3c1.4,0,2.2,1,2.2,2.4
			c0,0.3,0,0.6-0.1,0.8h-3.6c0,1.1,0.6,1.8,1.5,1.8C-1041.2,664-1040.8,663.8-1040.7,663.1z M-1040.7,661.4c0-0.1,0-0.2,0-0.2
			c0-0.7-0.5-1.3-1.2-1.3c-0.8,0-1.3,0.5-1.4,1.5H-1040.7z"/>
		<path d="M-1035.3,664.6c-0.4,0.2-0.8,0.3-1.3,0.3c-1,0-1.6-0.5-1.6-1.6v-3.3h-0.8v-0.9h0.8V658l1.1-0.1v1.3h1.6v0.9h-1.7v3
			c0,0.6,0.3,0.9,0.7,0.9c0.4,0,0.6-0.1,0.9-0.3L-1035.3,664.6z"/>
		<path d="M-1031.8,661.2c0-2,1-3.7,2.8-3.7c1.7,0,2.8,1.7,2.8,3.7c0,2.1-1,3.7-2.8,3.7C-1030.8,664.9-1031.8,663.3-1031.8,661.2z
			 M-1030.7,661.2c0,1.6,0.6,2.7,1.7,2.7c1.1,0,1.7-1.2,1.7-2.7c0-1.6-0.6-2.7-1.7-2.7C-1030.1,658.5-1030.7,659.6-1030.7,661.2z"/>
		<path d="M-1023.9,664.7v-5.9l-1.5,0.3v-1l2.6-0.5v7.1H-1023.9z"/>
		<path d="M-1021.2,666.1v-0.5c0.6-0.1,1-0.3,1-0.9c-0.5,0.1-0.9-0.2-0.9-0.7c0-0.5,0.3-0.7,0.8-0.7c0.5,0,0.9,0.4,0.9,1.1
			C-1019.4,665.5-1020.1,666.1-1021.2,666.1z"/>
		<path d="M-1013.8,657.7v6.1h3.2v1h-4.3v-7.1H-1013.8z"/>
		<path d="M-1009,656.7c0.4,0,0.8,0.3,0.8,0.7c0,0.4-0.3,0.7-0.8,0.7c-0.4,0-0.7-0.3-0.7-0.7C-1009.7,657-1009.3,656.7-1009,656.7z
			 M-1008.4,659.2v5.5h-1.1v-5.5H-1008.4z"/>
		<path d="M-1005.7,660.3c0.3-0.8,0.9-1.2,1.8-1.2c0.9,0,1.7,0.5,1.7,1.7v4h-1.1v-3.6c0-0.7-0.3-1.1-1-1.1c-0.7,0-1.3,0.4-1.3,1.6
			v3.2h-1.1v-5.5h0.9L-1005.7,660.3z"/>
		<path d="M-1000,656.7c0.4,0,0.8,0.3,0.8,0.7c0,0.4-0.3,0.7-0.8,0.7c-0.4,0-0.7-0.3-0.7-0.7C-1000.8,657-1000.4,656.7-1000,656.7z
			 M-999.5,659.2v5.5h-1.1v-5.5H-999.5z"/>
		<path d="M-996.8,660.3c0.3-0.8,0.9-1.2,1.8-1.2c0.9,0,1.7,0.5,1.7,1.7v4h-1.1v-3.6c0-0.7-0.3-1.1-1-1.1c-0.7,0-1.3,0.4-1.3,1.6
			v3.2h-1.1v-5.5h0.9L-996.8,660.3z"/>
		<path d="M-988.2,659.5c0.3-0.1,0.3-0.4,0.4-0.8l0.9,0.3c-0.1,0.5-0.5,0.9-0.9,1c0.2,0.3,0.3,0.6,0.3,1c0,1.3-1,1.9-2.3,1.9
			c-0.3,0-0.6,0-0.7-0.1c-0.3,0.1-0.4,0.3-0.4,0.6c0,0.3,0.2,0.5,0.6,0.5h1.4c1.3,0,1.9,0.6,1.9,1.5c0,1.5-1.6,1.8-3,1.8
			c-1.2,0-2.4-0.3-2.4-1.5c0-0.7,0.5-1.2,1.4-1.3c-0.5-0.1-0.8-0.4-0.8-0.9c0-0.4,0.2-0.8,0.8-1c-0.7-0.3-1.1-0.9-1.1-1.7
			c0-1.2,0.9-2,2.2-2C-989.1,659.1-988.6,659.2-988.2,659.5z M-989.9,666.5c1.1,0,1.9-0.2,1.9-0.9c0-0.4-0.2-0.7-0.9-0.7h-1.2
			c-0.8,0-1.2,0.3-1.2,0.8C-991.4,666.3-990.8,666.5-989.9,666.5z M-989.8,662.2c0.7,0,1.2-0.4,1.2-1.2s-0.5-1.2-1.2-1.2
			c-0.7,0-1.2,0.4-1.2,1.2C-990.9,661.7-990.5,662.2-989.8,662.2z"/>
		<path d="M-983,664.7v-7.1h2.1c1.8,0,2.5,0.8,2.5,2.2c0,1.4-0.8,2.3-2.4,2.3h-1.1v2.6H-983z M-981.9,661.2h1c1,0,1.4-0.5,1.4-1.3
			c0-0.9-0.5-1.3-1.4-1.3h-1V661.2z"/>
		<path d="M-974.1,660.3c-0.1,0-0.3,0-0.5,0c-0.8,0-1.5,0.6-1.5,1.7v2.8h-1.1v-5.5h0.9l0.1,1.5c0.2-1,0.9-1.7,2.1-1.6L-974.1,660.3z
			"/>
		<path d="M-973.5,661.9c0-1.9,1-2.9,2.5-2.9c1.5,0,2.5,1,2.5,2.9c0,1.9-1,3-2.5,3C-972.5,664.9-973.5,663.8-973.5,661.9z
			 M-972.5,662c0,1.4,0.5,2.1,1.5,2.1c1,0,1.5-0.7,1.5-2.1c0-1.4-0.5-2-1.5-2C-972,659.9-972.5,660.6-972.5,662z"/>
		<path d="M-966,667.2h-1.1v-8h0.9l0.1,1.1c0.3-0.9,1.1-1.2,1.8-1.2c1.4,0,2.2,1,2.2,2.8c0,1.7-0.9,3-2.4,3c-0.9,0-1.4-0.4-1.6-0.9
			V667.2z M-966,662.6c0,1.1,0.7,1.5,1.3,1.5c0.8,0,1.5-0.7,1.5-2.1c0-1.3-0.5-2-1.4-2c-0.8,0-1.5,0.6-1.5,1.6V662.6z"/>
		<path d="M-961.1,661.9c0-1.9,1-2.9,2.5-2.9c1.5,0,2.5,1,2.5,2.9c0,1.9-1,3-2.5,3C-960.1,664.9-961.1,663.8-961.1,661.9z M-960,662
			c0,1.4,0.5,2.1,1.5,2.1c1,0,1.5-0.7,1.5-2.1c0-1.4-0.5-2-1.5-2C-959.5,659.9-960,660.6-960,662z"/>
		<path d="M-951.6,660.3c-0.1,0-0.3,0-0.5,0c-0.8,0-1.5,0.6-1.5,1.7v2.8h-1.1v-5.5h0.9l0.1,1.5c0.2-1,0.9-1.7,2.1-1.6L-951.6,660.3z
			"/>
		<path d="M-947.4,664.6c-0.4,0.2-0.8,0.3-1.3,0.3c-1,0-1.6-0.5-1.6-1.6v-3.3h-0.8v-0.9h0.8V658l1.1-0.1v1.3h1.6v0.9h-1.7v3
			c0,0.6,0.3,0.9,0.7,0.9c0.4,0,0.6-0.1,0.9-0.3L-947.4,664.6z"/>
		<path d="M-945.8,656.7c0.4,0,0.8,0.3,0.8,0.7c0,0.4-0.3,0.7-0.8,0.7c-0.4,0-0.7-0.3-0.7-0.7C-946.5,657-946.2,656.7-945.8,656.7z
			 M-945.3,659.2v5.5h-1.1v-5.5H-945.3z"/>
		<path d="M-943.9,661.9c0-1.9,1-2.9,2.5-2.9c1.5,0,2.5,1,2.5,2.9c0,1.9-1,3-2.5,3C-942.9,664.9-943.9,663.8-943.9,661.9z
			 M-942.8,662c0,1.4,0.5,2.1,1.5,2.1c1,0,1.5-0.7,1.5-2.1c0-1.4-0.5-2-1.5-2C-942.3,659.9-942.8,660.6-942.8,662z"/>
		<path d="M-936.5,660.3c0.3-0.8,0.9-1.2,1.8-1.2c0.9,0,1.7,0.5,1.7,1.7v4h-1.1v-3.6c0-0.7-0.3-1.1-1-1.1c-0.7,0-1.3,0.4-1.3,1.6
			v3.2h-1.1v-5.5h0.9L-936.5,660.3z"/>
		<path d="M-927.5,663.4c0,0.4,0.2,0.5,0.4,0.5c0.1,0,0.2,0,0.3-0.1v0.8c-0.2,0.1-0.3,0.1-0.6,0.1c-0.6,0-1-0.3-1.1-0.9
			c-0.3,0.7-0.9,0.9-1.6,0.9c-1,0-1.7-0.6-1.7-1.5c0-1.2,0.9-1.9,3.2-1.8v-0.7c0-0.7-0.4-0.9-1-0.9c-0.6,0-1,0.3-1,0.9l-1-0.2
			c0.1-1.2,1.1-1.6,2.1-1.6c1.1,0,2,0.4,2,1.7V663.4z M-928.6,662.3c-1.5,0-2.1,0.3-2.1,1c0,0.5,0.3,0.8,0.9,0.8
			c0.6,0,1.2-0.3,1.2-1V662.3z"/>
		<path d="M-923.7,664.7c-0.3,0.1-0.5,0.1-0.7,0.1c-0.7,0-1.3-0.4-1.3-1.2v-6.9h1.1v6.7c0,0.3,0.2,0.5,0.5,0.5c0.2,0,0.3,0,0.4-0.1
			L-923.7,664.7z"/>
		<path d="M-919.5,667.2v-10.5h0.9v10.5H-919.5z"/>
		<path d="M-909.9,664.7l-2.2-3.1h-0.6v3.1h-1.1v-7.1h1.1v3h0.6l2.1-3h1.3l-2.5,3.4l2.6,3.6H-909.9z"/>
		<path d="M-904.3,663.1l0.9,0.3c-0.2,1.1-1.2,1.5-2.2,1.5c-1.5,0-2.5-1-2.5-2.9c0-1.9,1-3,2.5-3c1.4,0,2.2,1,2.2,2.4
			c0,0.3,0,0.6-0.1,0.8h-3.6c0,1.1,0.6,1.8,1.5,1.8C-904.9,664-904.5,663.8-904.3,663.1z M-904.4,661.4c0-0.1,0-0.2,0-0.2
			c0-0.7-0.5-1.3-1.2-1.3c-0.8,0-1.3,0.5-1.4,1.5H-904.4z"/>
		<path d="M-898.8,660.3c-0.1,0-0.3,0-0.5,0c-0.8,0-1.5,0.6-1.5,1.7v2.8h-1.1v-5.5h0.9l0.1,1.5c0.2-1,0.9-1.7,2.1-1.6L-898.8,660.3z
			"/>
		<path d="M-896.7,660.3c0.3-0.8,0.9-1.2,1.8-1.2c0.9,0,1.7,0.5,1.7,1.7v4h-1.1v-3.6c0-0.7-0.3-1.1-1-1.1c-0.7,0-1.3,0.4-1.3,1.6
			v3.2h-1.1v-5.5h0.9L-896.7,660.3z"/>
		<path d="M-891,656.7c0.4,0,0.8,0.3,0.8,0.7c0,0.4-0.3,0.7-0.8,0.7c-0.4,0-0.7-0.3-0.7-0.7C-891.7,657-891.4,656.7-891,656.7z
			 M-890.5,659.2v5.5h-1.1v-5.5H-890.5z"/>
		<path d="M-887.8,660.3c0.3-0.8,0.9-1.2,1.8-1.2c0.9,0,1.7,0.5,1.7,1.7v4h-1.1v-3.6c0-0.7-0.3-1.1-1-1.1c-0.7,0-1.3,0.4-1.3,1.6
			v3.2h-1.1v-5.5h0.9L-887.8,660.3z"/>
		<path d="M-879.1,659.5c0.3-0.1,0.3-0.4,0.4-0.8l0.9,0.3c-0.1,0.5-0.5,0.9-0.9,1c0.2,0.3,0.3,0.6,0.3,1c0,1.3-1,1.9-2.3,1.9
			c-0.3,0-0.6,0-0.7-0.1c-0.3,0.1-0.4,0.3-0.4,0.6c0,0.3,0.2,0.5,0.6,0.5h1.4c1.3,0,1.9,0.6,1.9,1.5c0,1.5-1.6,1.8-3,1.8
			c-1.2,0-2.4-0.3-2.4-1.5c0-0.7,0.5-1.2,1.4-1.3c-0.5-0.1-0.8-0.4-0.8-0.9c0-0.4,0.2-0.8,0.8-1c-0.7-0.3-1.1-0.9-1.1-1.7
			c0-1.2,0.9-2,2.2-2C-880.1,659.1-879.6,659.2-879.1,659.5z M-880.9,666.5c1.1,0,1.9-0.2,1.9-0.9c0-0.4-0.2-0.7-0.9-0.7h-1.2
			c-0.8,0-1.2,0.3-1.2,0.8C-882.4,666.3-881.7,666.5-880.9,666.5z M-880.8,662.2c0.7,0,1.2-0.4,1.2-1.2s-0.5-1.2-1.2-1.2
			c-0.7,0-1.2,0.4-1.2,1.2C-881.9,661.7-881.5,662.2-880.8,662.2z"/>
		<path d="M-876,659.2c0.5,0,0.8,0.3,0.8,0.8c0,0.5-0.4,0.8-0.8,0.8c-0.5,0-0.8-0.4-0.8-0.8C-876.8,659.5-876.4,659.2-876,659.2z
			 M-876,663.2c0.5,0,0.8,0.3,0.8,0.8c0,0.5-0.4,0.8-0.8,0.8c-0.5,0-0.8-0.4-0.8-0.8C-876.8,663.5-876.4,663.2-876,663.2z"/>
		<path d="M-871.1,661.2c0-2.4,1.2-3.7,3.2-3.7c1.9,0,3.2,1.3,3.2,3.7c0,2.4-1.2,3.7-3.2,3.7C-869.8,664.9-871.1,663.6-871.1,661.2z
			 M-869.9,661.2c0,1.7,0.7,2.7,2,2.7c1.3,0,2-1,2-2.7c0-1.7-0.7-2.7-2-2.7C-869.2,658.5-869.9,659.5-869.9,661.2z"/>
		<path d="M-862.2,667.2h-1.1v-8h0.9l0.1,1.1c0.3-0.9,1.1-1.2,1.8-1.2c1.4,0,2.2,1,2.2,2.8c0,1.7-0.9,3-2.4,3
			c-0.9,0-1.4-0.4-1.6-0.9V667.2z M-862.2,662.6c0,1.1,0.7,1.5,1.3,1.5c0.8,0,1.5-0.7,1.5-2.1c0-1.3-0.5-2-1.4-2
			c-0.8,0-1.5,0.6-1.5,1.6V662.6z"/>
		<path d="M-853.9,664.6c-0.4,0.2-0.8,0.3-1.3,0.3c-1,0-1.6-0.5-1.6-1.6v-3.3h-0.8v-0.9h0.8V658l1.1-0.1v1.3h1.6v0.9h-1.7v3
			c0,0.6,0.3,0.9,0.7,0.9c0.4,0,0.6-0.1,0.9-0.3L-853.9,664.6z"/>
		<path d="M-852.3,656.7c0.4,0,0.8,0.3,0.8,0.7c0,0.4-0.3,0.7-0.8,0.7c-0.4,0-0.7-0.3-0.7-0.7C-853,657-852.7,656.7-852.3,656.7z
			 M-851.8,659.2v5.5h-1.1v-5.5H-851.8z"/>
		<path d="M-845.8,663.3c-0.2,1.1-1.1,1.5-2.2,1.5c-1.5,0-2.4-1-2.4-2.9c0-1.8,1-2.9,2.5-2.9c1.2,0,1.9,0.6,2,1.7l-1,0.2
			c-0.1-0.7-0.5-1-1.1-1c-0.9,0-1.4,0.8-1.4,2.1c0,1.2,0.6,2,1.5,2c0.6,0,1-0.3,1.2-0.9L-845.8,663.3z"/>
		<path d="M-840.7,663.4c0,0.4,0.2,0.5,0.4,0.5c0.1,0,0.2,0,0.3-0.1v0.8c-0.2,0.1-0.3,0.1-0.6,0.1c-0.6,0-1-0.3-1.1-0.9
			c-0.3,0.7-0.9,0.9-1.6,0.9c-1,0-1.7-0.6-1.7-1.5c0-1.2,0.9-1.9,3.2-1.8v-0.7c0-0.7-0.4-0.9-1-0.9c-0.6,0-1,0.3-1,0.9l-1-0.2
			c0.1-1.2,1.1-1.6,2.1-1.6c1.1,0,2,0.4,2,1.7V663.4z M-841.8,662.3c-1.5,0-2.1,0.3-2.1,1c0,0.5,0.3,0.8,0.9,0.8
			c0.6,0,1.2-0.3,1.2-1V662.3z"/>
		<path d="M-836.9,664.7c-0.3,0.1-0.5,0.1-0.7,0.1c-0.7,0-1.3-0.4-1.3-1.2v-6.9h1.1v6.7c0,0.3,0.2,0.5,0.5,0.5c0.2,0,0.3,0,0.4-0.1
			L-836.9,664.7z"/>
		<path d="M-832.7,667.2v-10.5h0.9v10.5H-832.7z"/>
		<path d="M-825.7,664.7v-6.1h-2.1v-1h5.2v1h-2.1v6.1H-825.7z"/>
		<path d="M-818.7,660.3c-0.1,0-0.3,0-0.5,0c-0.8,0-1.5,0.6-1.5,1.7v2.8h-1.1v-5.5h0.9l0.1,1.5c0.2-1,0.9-1.7,2.1-1.6L-818.7,660.3z
			"/>
		<path d="M-813.8,663.4c0,0.4,0.2,0.5,0.4,0.5c0.1,0,0.2,0,0.3-0.1v0.8c-0.2,0.1-0.3,0.1-0.6,0.1c-0.6,0-1-0.3-1.1-0.9
			c-0.3,0.7-0.9,0.9-1.6,0.9c-1,0-1.7-0.6-1.7-1.5c0-1.2,0.9-1.9,3.2-1.8v-0.7c0-0.7-0.4-0.9-1-0.9c-0.6,0-1,0.3-1,0.9l-1-0.2
			c0.1-1.2,1.1-1.6,2.1-1.6c1.1,0,2,0.4,2,1.7V663.4z M-814.9,662.3c-1.5,0-2.1,0.3-2.1,1c0,0.5,0.3,0.8,0.9,0.8
			c0.6,0,1.2-0.3,1.2-1V662.3z"/>
		<path d="M-807.7,663.3c-0.2,1.1-1.1,1.5-2.2,1.5c-1.5,0-2.4-1-2.4-2.9c0-1.8,1-2.9,2.5-2.9c1.2,0,1.9,0.6,2,1.7l-1,0.2
			c-0.1-0.7-0.5-1-1.1-1c-0.9,0-1.4,0.8-1.4,2.1c0,1.2,0.6,2,1.5,2c0.6,0,1-0.3,1.2-0.9L-807.7,663.3z"/>
		<path d="M-801.8,664.7h-1.3l-1.9-2.5h-0.3v2.5h-1.1v-8h1.1v4.7h0.3l1.8-2.2h1.3l-2.2,2.6L-801.8,664.7z"/>
		<path d="M-800.3,656.7c0.4,0,0.8,0.3,0.8,0.7c0,0.4-0.3,0.7-0.8,0.7c-0.4,0-0.7-0.3-0.7-0.7C-801,657-800.7,656.7-800.3,656.7z
			 M-799.7,659.2v5.5h-1.1v-5.5H-799.7z"/>
		<path d="M-797,660.3c0.3-0.8,0.9-1.2,1.8-1.2c0.9,0,1.7,0.5,1.7,1.7v4h-1.1v-3.6c0-0.7-0.3-1.1-1-1.1c-0.7,0-1.3,0.4-1.3,1.6v3.2
			h-1.1v-5.5h0.9L-797,660.3z"/>
		<path d="M-788.4,659.5c0.3-0.1,0.3-0.4,0.4-0.8l0.9,0.3c-0.1,0.5-0.5,0.9-0.9,1c0.2,0.3,0.3,0.6,0.3,1c0,1.3-1,1.9-2.3,1.9
			c-0.3,0-0.6,0-0.7-0.1c-0.3,0.1-0.4,0.3-0.4,0.6c0,0.3,0.2,0.5,0.6,0.5h1.4c1.3,0,1.9,0.6,1.9,1.5c0,1.5-1.6,1.8-3,1.8
			c-1.2,0-2.4-0.3-2.4-1.5c0-0.7,0.5-1.2,1.4-1.3c-0.5-0.1-0.8-0.4-0.8-0.9c0-0.4,0.2-0.8,0.8-1c-0.7-0.3-1.1-0.9-1.1-1.7
			c0-1.2,0.9-2,2.2-2C-789.4,659.1-788.8,659.2-788.4,659.5z M-790.1,666.5c1.1,0,1.9-0.2,1.9-0.9c0-0.4-0.2-0.7-0.9-0.7h-1.2
			c-0.8,0-1.2,0.3-1.2,0.8C-791.6,666.3-791,666.5-790.1,666.5z M-790,662.2c0.7,0,1.2-0.4,1.2-1.2s-0.5-1.2-1.2-1.2
			c-0.7,0-1.2,0.4-1.2,1.2C-791.2,661.7-790.8,662.2-790,662.2z"/>
		<path d="M-785.2,659.2c0.5,0,0.8,0.3,0.8,0.8c0,0.5-0.4,0.8-0.8,0.8c-0.5,0-0.8-0.4-0.8-0.8C-786,659.5-785.7,659.2-785.2,659.2z
			 M-785.2,663.2c0.5,0,0.8,0.3,0.8,0.8c0,0.5-0.4,0.8-0.8,0.8c-0.5,0-0.8-0.4-0.8-0.8C-786,663.5-785.7,663.2-785.2,663.2z"/>
		<path d="M-780,661.2h2.8v0.9h-2.8V661.2z"/>
		<path d="M-771.5,664.7h-4.6v-0.9c1.9-1.5,3.3-2.6,3.3-4.1c0-0.9-0.5-1.3-1.2-1.3c-0.7,0-1.2,0.5-1.2,1.1c0,0.5,0.3,0.9,0.6,1.1
			l-0.9,0.4c-0.3-0.3-0.8-0.8-0.8-1.6c0-1,0.7-2,2.3-2c1.3,0,2.3,0.6,2.3,2.2c0,2-2,3.4-3.2,4v0h3.3V664.7z"/>
		<path d="M-1109.7,671.9c2,0,3.7,1.5,3.7,3.7c0,2.1-1.7,3.7-3.7,3.7c-2,0-3.7-1.5-3.7-3.7C-1113.3,673.5-1111.7,671.9-1109.7,671.9
			z M-1109.6,678.9c1.8,0,3.3-1.4,3.3-3.3c0-1.9-1.5-3.3-3.3-3.3s-3.3,1.4-3.3,3.3C-1112.9,677.6-1111.5,678.9-1109.6,678.9z
			 M-1107.7,677c-0.4,0.6-1,0.9-1.9,0.9c-1.2,0-2.2-0.8-2.2-2.3c0-1.5,0.9-2.3,2.3-2.3c0.9,0,1.5,0.4,1.8,1.1l-0.8,0.5
			c-0.2-0.5-0.5-0.7-1-0.7c-0.8,0-1.3,0.5-1.3,1.5c0,1,0.5,1.5,1.3,1.5c0.5,0,0.8-0.2,1.1-0.7L-1107.7,677z"/>
		<path d="M-1101.5,677.6c0.1,0.6,0.5,0.9,1.2,0.9c0.6,0,1.1-0.2,1.1-0.7c0-0.5-0.2-0.7-0.9-0.9l-0.8-0.2c-1-0.2-1.4-0.8-1.4-1.6
			c0-1.2,1-1.7,2.1-1.7c1.2,0,1.9,0.4,2,1.5l-1.1,0.1c0-0.6-0.4-0.8-1-0.8c-0.6,0-1,0.3-1,0.7c0,0.4,0.2,0.6,0.8,0.8l0.8,0.2
			c1,0.2,1.5,0.7,1.5,1.7c0,1.2-0.9,1.6-2.1,1.6c-1.3,0-2-0.4-2.1-1.4L-1101.5,677.6z"/>
		<path d="M-1093.9,679c-0.4,0.2-0.8,0.3-1.3,0.3c-1,0-1.6-0.5-1.6-1.6v-3.3h-0.8v-0.9h0.8v-1.2l1.1-0.1v1.3h1.6v0.9h-1.7v3
			c0,0.6,0.3,0.9,0.7,0.9c0.4,0,0.6-0.1,0.9-0.3L-1093.9,679z"/>
		<path d="M-1093.6,673.6h1.2l1,3c0.3,1,0.4,1.8,0.4,1.8h0c0,0,0.1-0.7,0.4-1.8l0.9-3h1.1l-1.9,5.5h-1.3L-1093.6,673.6z"/>
		<path d="M-1084.1,673.9c0.3-0.1,0.3-0.4,0.4-0.8l0.9,0.3c-0.1,0.5-0.5,0.9-0.9,1c0.2,0.3,0.3,0.6,0.3,1c0,1.3-1,1.9-2.3,1.9
			c-0.3,0-0.6,0-0.7-0.1c-0.3,0.1-0.4,0.3-0.4,0.6c0,0.3,0.2,0.5,0.6,0.5h1.4c1.3,0,1.9,0.6,1.9,1.5c0,1.5-1.6,1.8-3,1.8
			c-1.2,0-2.4-0.3-2.4-1.5c0-0.7,0.5-1.2,1.4-1.3c-0.5-0.1-0.8-0.4-0.8-0.9c0-0.4,0.2-0.8,0.8-1c-0.7-0.3-1.1-0.9-1.1-1.7
			c0-1.2,0.9-2,2.2-2C-1085.1,673.5-1084.5,673.6-1084.1,673.9z M-1085.8,680.9c1.1,0,1.9-0.2,1.9-0.9c0-0.4-0.2-0.7-0.9-0.7h-1.2
			c-0.8,0-1.2,0.3-1.2,0.8C-1087.4,680.7-1086.7,680.9-1085.8,680.9z M-1085.7,676.6c0.7,0,1.2-0.4,1.2-1.2c0-0.8-0.5-1.2-1.2-1.2
			c-0.7,0-1.2,0.4-1.2,1.2C-1086.9,676.1-1086.5,676.6-1085.7,676.6z"/>
		<path d="M-1081,677.6c0.5,0,0.8,0.3,0.8,0.8c0,0.5-0.4,0.8-0.8,0.8c-0.5,0-0.8-0.4-0.8-0.8C-1081.9,677.9-1081.5,677.6-1081,677.6
			z"/>
		<path d="M-1074.3,677.7c-0.2,1.1-1.1,1.5-2.2,1.5c-1.5,0-2.4-1-2.4-2.9c0-1.8,1-2.9,2.5-2.9c1.2,0,1.9,0.6,2,1.7l-1,0.2
			c-0.1-0.7-0.5-1-1.1-1c-0.9,0-1.4,0.8-1.4,2.1c0,1.2,0.6,2,1.5,2c0.6,0,1-0.3,1.2-0.9L-1074.3,677.7z"/>
		<path d="M-1072,674.7c0.3-0.8,0.8-1.2,1.7-1.2c0.9,0,1.7,0.5,1.7,1.7v4h-1.1v-3.6c0-0.7-0.3-1.1-1-1.1c-0.7,0-1.3,0.3-1.3,1.6v3.2
			h-1.1v-8h1.1V674.7z"/>
		<path d="M-1065,674.5v-0.9h0.8V673c0-1.5,0.9-1.9,1.9-1.9c0.4,0,0.8,0.1,1.2,0.2l-0.2,0.9c-0.3-0.2-0.5-0.2-0.9-0.2
			c-0.6,0-0.9,0.3-0.9,1.1v0.6h1.4v0.9h-1.4v4.7h-1.1v-4.7H-1065z"/>
		<path d="M-1061.3,676.3c0-1.9,1-2.9,2.5-2.9c1.5,0,2.5,1,2.5,2.9c0,1.9-1,3-2.5,3C-1060.3,679.3-1061.3,678.2-1061.3,676.3z
			 M-1060.2,676.4c0,1.4,0.5,2.1,1.5,2.1c1,0,1.5-0.7,1.5-2.1c0-1.4-0.5-2-1.5-2C-1059.7,674.3-1060.2,675-1060.2,676.4z"/>
		<path d="M-1051.8,674.7c-0.1,0-0.3,0-0.5,0c-0.8,0-1.5,0.6-1.5,1.7v2.8h-1.1v-5.5h0.9l0.1,1.5c0.2-1,0.9-1.7,2.1-1.6
			L-1051.8,674.7z"/>
		<path d="M-1046.1,679.1c-0.3,0.1-0.5,0.1-0.7,0.1c-0.7,0-1.3-0.4-1.3-1.2v-6.9h1.1v6.7c0,0.3,0.2,0.5,0.5,0.5c0.2,0,0.3,0,0.4-0.1
			L-1046.1,679.1z"/>
		<path d="M-1040.9,677.8c0,0.4,0.2,0.5,0.4,0.5c0.1,0,0.2,0,0.3-0.1v0.8c-0.2,0.1-0.3,0.1-0.6,0.1c-0.6,0-1-0.3-1.1-0.9
			c-0.3,0.7-0.9,0.9-1.6,0.9c-1,0-1.7-0.6-1.7-1.5c0-1.2,0.9-1.9,3.2-1.8v-0.7c0-0.7-0.4-0.9-1-0.9c-0.6,0-1,0.3-1,0.9l-1-0.2
			c0.1-1.2,1.1-1.6,2.1-1.6c1.1,0,2,0.4,2,1.7V677.8z M-1042,676.7c-1.5,0-2.1,0.3-2.1,1c0,0.5,0.3,0.8,0.9,0.8c0.6,0,1.2-0.3,1.2-1
			V676.7z"/>
		<path d="M-1038.6,677.6c0.1,0.6,0.5,0.9,1.2,0.9c0.6,0,1.1-0.2,1.1-0.7c0-0.5-0.2-0.7-0.9-0.9l-0.8-0.2c-1-0.2-1.4-0.8-1.4-1.6
			c0-1.2,1-1.7,2.1-1.7c1.2,0,1.9,0.4,2,1.5l-1.1,0.1c0-0.6-0.4-0.8-1-0.8c-0.6,0-1,0.3-1,0.7c0,0.4,0.2,0.6,0.8,0.8l0.8,0.2
			c1,0.2,1.5,0.7,1.5,1.7c0,1.2-0.9,1.6-2.1,1.6c-1.3,0-2-0.4-2.1-1.4L-1038.6,677.6z"/>
		<path d="M-1031,679c-0.4,0.2-0.8,0.3-1.3,0.3c-1,0-1.6-0.5-1.6-1.6v-3.3h-0.8v-0.9h0.8v-1.2l1.1-0.1v1.3h1.6v0.9h-1.7v3
			c0,0.6,0.3,0.9,0.7,0.9c0.4,0,0.6-0.1,0.9-0.3L-1031,679z"/>
		<path d="M-1028.9,677.6c0.5,0,0.8,0.3,0.8,0.8c0,0.5-0.4,0.8-0.8,0.8c-0.5,0-0.8-0.4-0.8-0.8
			C-1029.7,677.9-1029.3,677.6-1028.9,677.6z"/>
		<path d="M-1027,674.5v-0.9h0.8V673c0-1.5,0.9-1.9,1.9-1.9c0.4,0,0.8,0.1,1.2,0.2l-0.2,0.9c-0.3-0.2-0.5-0.2-0.9-0.2
			c-0.6,0-0.9,0.3-0.9,1.1v0.6h1.4v0.9h-1.4v4.7h-1.1v-4.7H-1027z"/>
		<path d="M-1016.9,673.5c0.9,0,1.6,0.5,1.6,1.7v4h-1.1v-3.6c0-0.7-0.3-1.1-0.9-1.1c-0.6,0-1.3,0.4-1.3,1.6v3.2h-1.1v-3.6
			c0-0.7-0.3-1.1-0.9-1.1c-0.6,0-1.3,0.5-1.3,1.6v3.2h-1.1v-5.5h0.9l0.1,1.1c0.3-0.9,1-1.2,1.7-1.2c0.8,0,1.4,0.3,1.5,1.2
			C-1018.4,673.8-1017.7,673.5-1016.9,673.5z"/>
		<path d="M-1013.8,680.5V680c0.6-0.1,1-0.3,1-0.9c-0.5,0.1-0.9-0.2-0.9-0.7c0-0.5,0.3-0.7,0.8-0.7c0.5,0,0.9,0.4,0.9,1.1
			C-1012,679.9-1012.7,680.5-1013.8,680.5z"/>
		<path d="M-1003.5,679.1h-4.6v-0.9c1.9-1.5,3.3-2.6,3.3-4.1c0-0.9-0.5-1.3-1.2-1.3c-0.7,0-1.2,0.5-1.2,1.1c0,0.5,0.3,0.9,0.6,1.1
			l-0.9,0.4c-0.3-0.3-0.8-0.8-0.8-1.6c0-1,0.7-2,2.3-2c1.3,0,2.3,0.6,2.3,2.2c0,2-2,3.4-3.2,4v0h3.3V679.1z"/>
		<path d="M-1002.4,675.6c0-2,1-3.7,2.8-3.7c1.7,0,2.8,1.7,2.8,3.7c0,2.1-1,3.7-2.8,3.7C-1001.4,679.3-1002.4,677.7-1002.4,675.6z
			 M-1001.3,675.6c0,1.6,0.6,2.7,1.7,2.7c1.1,0,1.7-1.2,1.7-2.7c0-1.6-0.6-2.7-1.7-2.7C-1000.7,672.9-1001.3,674-1001.3,675.6z"/>
		<path d="M-995.5,675.6c0-2,1-3.7,2.8-3.7c1.7,0,2.8,1.7,2.8,3.7c0,2.1-1,3.7-2.8,3.7C-994.6,679.3-995.5,677.7-995.5,675.6z
			 M-994.5,675.6c0,1.6,0.6,2.7,1.7,2.7c1.1,0,1.7-1.2,1.7-2.7c0-1.6-0.6-2.7-1.7-2.7C-993.8,672.9-994.5,674-994.5,675.6z"/>
		<path d="M-988.8,677.4c0-0.9,0.6-1.5,1.3-1.8v-0.1c-0.8-0.3-1.2-0.9-1.2-1.7c0-1.2,0.9-1.9,2.3-1.9c1.4,0,2.3,0.8,2.3,1.9
			c0,0.8-0.3,1.4-1.2,1.7v0.1c0.8,0.3,1.3,0.9,1.3,1.8c0,1.2-0.9,1.9-2.4,1.9C-987.9,679.3-988.8,678.5-988.8,677.4z M-987.7,677.2
			c0,0.8,0.5,1.3,1.4,1.3c0.9,0,1.4-0.5,1.4-1.3c0-0.8-0.6-1.2-1.4-1.2C-987.1,676-987.7,676.4-987.7,677.2z M-987.6,673.9
			c0,0.9,0.5,1.2,1.2,1.2c0.7,0,1.2-0.4,1.2-1.2c0-0.7-0.4-1.2-1.2-1.2C-987.2,672.7-987.6,673.2-987.6,673.9z"/>
	</g>
</g>
<g id="Black">
	<g>
		<path class="st0" d="M124.9,130.5l-6.6-17.9c0,0-10.7,11.9-26.8,11.9c-14.2,0-24.3-12.4-24.3-32.1c0-25.3,12.8-34.4,25.3-34.4
			c18.1,0,23.9,11.7,28.8,26.8l6.6,20.6c6.6,20,18.9,36,54.5,36c25.5,0,42.8-7.8,42.8-28.4c0-16.7-9.5-25.3-27.2-29.4L185,80.7
			c-9.1-2.1-11.7-5.8-11.7-11.9c0-7,5.6-11.1,14.6-11.1c9.9,0,15.2,3.7,16.1,12.6l20.6-2.5c-1.6-18.5-14.4-26.1-35.4-26.1
			c-18.5,0-36.6,7-36.6,29.4c0,14,6.8,22.8,23.9,27l14,3.3c10.5,2.5,14,6.8,14,12.8c0,7.6-7.4,10.7-21.4,10.7
			c-20.8,0-29.4-10.9-34.4-25.9l-6.8-20.6c-8.6-26.8-22.4-36.6-49.8-36.6c-30.3,0-46.3,19.1-46.3,51.7c0,31.3,16.1,48.2,44.9,48.2
			C113.8,141.4,124.9,130.5,124.9,130.5L124.9,130.5z"/>
		<path class="st0" d="M36.8,120.8c-2.1,0.6-4.1,1-6.8,1c-4.9,0-8.4-2.3-8.4-8.2V1.4H0v117.3c0,15.4,10.7,21.8,23.3,21.8
			c4.1,0,8-0.6,13-1.9L36.8,120.8L36.8,120.8z"/>
		<path class="st0" d="M297.2,117.5c-5.4,3.7-9.9,5.6-16.1,5.6c-7.8,0-12.1-4.1-12.1-14.2V60.7h28.4V43.8h-28.2V21l-21.8,2.7v20.2
			h-13.8v16.9h13.8v52.7c0,18.9,10.9,28,28.6,28c9.7,0,18.3-1.8,25.1-5.8L297.2,117.5L297.2,117.5z"/>
		<path class="st0" d="M316,124.9c0,8.4,6.6,15.2,15,15.2c8.9,0,15.4-6.8,15.4-15.2c0-8.6-6.6-15.2-15.4-15.2
			C322.6,109.7,316,116.3,316,124.9L316,124.9z"/>
		<path class="st0" d="M368.8,60.7v78.2h21.6V60.7h24.3V43.8h-24.3v-8.6c0-13,5.6-17.1,14.6-17.1c6.4,0,10.7,1.4,15.6,4.1l3.5-18.1
			C418.4,1.4,411.7,0,403.4,0c-18.1,0-34.6,8.6-34.6,34.4v9.5H355v16.9H368.8L368.8,60.7z"/>
		<path class="st0" d="M500.9,62.6c-2.5-15.4-12.6-21-25.7-21c-13.2,0-24.5,6-29.4,20.6L443,43.8h-17.5v95.1h21.6V85.2
			c0-18.3,9.5-25.3,19.6-25.3c10.5,0,14.8,7,14.8,18.3v60.7h21.4V85c0-18.1,9.7-25.1,19.8-25.1c10.3,0,14.6,7,14.6,18.3v60.7h21.6
			V70.6c0-20.4-11.9-29-27.8-29C517.7,41.6,505.8,47.6,500.9,62.6L500.9,62.6z"/>
	</g>
</g>
<g id="Red__x28_1797_U_x29_">
	<g>
		<path class="st1" d="M-1203.1,315.4l-6.6-17.9c0,0-10.7,11.9-26.8,11.9c-14.2,0-24.3-12.4-24.3-32.1c0-25.3,12.8-34.4,25.3-34.4
			c18.1,0,23.9,11.7,28.8,26.8l6.6,20.6c6.6,20,18.9,36,54.5,36c25.5,0,42.8-7.8,42.8-28.4c0-16.7-9.5-25.3-27.2-29.4l-13.2-2.9
			c-9.1-2.1-11.7-5.8-11.7-11.9c0-7,5.6-11.1,14.6-11.1c9.9,0,15.2,3.7,16.1,12.6l20.6-2.5c-1.6-18.5-14.4-26.1-35.4-26.1
			c-18.5,0-36.6,7-36.6,29.4c0,14,6.8,22.8,23.9,27l14,3.3c10.5,2.5,14,6.8,14,12.8c0,7.6-7.4,10.7-21.4,10.7
			c-20.8,0-29.4-10.9-34.4-25.9l-6.8-20.6c-8.6-26.8-22.4-36.6-49.8-36.6c-30.3,0-46.3,19.1-46.3,51.7c0,31.3,16.1,48.2,44.9,48.2
			C-1214.2,326.3-1203.1,315.4-1203.1,315.4L-1203.1,315.4z"/>
		<path class="st1" d="M-1291.2,305.7c-2.1,0.6-4.1,1-6.8,1c-4.9,0-8.4-2.3-8.4-8.2V186.3h-21.6v117.3c0,15.4,10.7,21.8,23.3,21.8
			c4.1,0,8-0.6,13-1.9L-1291.2,305.7L-1291.2,305.7z"/>
		<path class="st1" d="M-1030.8,302.4c-5.4,3.7-9.9,5.6-16.1,5.6c-7.8,0-12.1-4.1-12.1-14.2v-48.2h28.4v-16.9h-28.2v-22.9l-21.8,2.7
			v20.2h-13.8v16.9h13.8v52.7c0,18.9,10.9,28,28.6,28c9.7,0,18.3-1.8,25.1-5.8L-1030.8,302.4L-1030.8,302.4z"/>
		<path class="st1" d="M-1012,309.8c0,8.4,6.6,15.2,15,15.2c8.9,0,15.4-6.8,15.4-15.2c0-8.6-6.6-15.2-15.4-15.2
			C-1005.4,294.6-1012,301.1-1012,309.8L-1012,309.8z"/>
		<path class="st1" d="M-959.2,245.6v78.2h21.6v-78.2h24.3v-16.9h-24.3V220c0-13,5.6-17.1,14.6-17.1c6.4,0,10.7,1.4,15.6,4.1
			l3.5-18.1c-5.8-2.7-12.6-4.1-20.8-4.1c-18.1,0-34.6,8.6-34.6,34.4v9.5H-973v16.9H-959.2L-959.2,245.6z"/>
		<path class="st1" d="M-827.1,247.4c-2.5-15.4-12.6-21-25.7-21c-13.2,0-24.5,6-29.4,20.6l-2.7-18.3h-17.5v95.1h21.6v-53.7
			c0-18.3,9.5-25.3,19.6-25.3c10.5,0,14.8,7,14.8,18.3v60.7h21.4v-53.9c0-18.1,9.7-25.1,19.8-25.1c10.3,0,14.6,7,14.6,18.3v60.7
			h21.6v-68.3c0-20.4-11.9-29-27.8-29C-810.3,226.4-822.2,232.4-827.1,247.4L-827.1,247.4z"/>
	</g>
</g>
</svg>
